<svg width="722" height="178" viewBox="0 0 722 178" fill="none" xmlns="http://www.w3.org/2000/svg">
<path d="M0 31.125C0 20.0793 8.9543 11.125 20 11.125H63.4375C74.4832 11.125 83.4375 20.0793 83.4375 31.125V158C83.4375 169.046 74.1988 176.489 66.1293 168.946C57.4442 160.828 49.6397 150.187 41.7187 150.187C33.9247 150.187 26.0147 160.795 17.2953 168.908C9.20874 176.432 0 169.046 0 158V31.125Z" fill="#34D399"/>
<path d="M5.5625 25.5625C5.5625 14.5168 14.5168 5.56252 25.5625 5.56252H69C80.0457 5.56252 89 14.5168 89 25.5625V152.438C89 163.483 79.7613 170.926 71.6918 163.383C63.0067 155.265 55.2022 144.625 47.2812 144.625C39.4872 144.625 31.5772 155.232 22.8578 163.345C14.7712 170.87 5.5625 163.483 5.5625 152.438V25.5625Z" fill="#60A5FA"/>
<path d="M11.125 20C11.125 8.9543 20.0793 0 31.125 0H74.5625C85.6082 0 94.5625 8.9543 94.5625 20V146.875C94.5625 157.921 85.3238 165.364 77.2543 157.821C68.5692 149.703 60.7647 139.062 52.8437 139.062C45.0497 139.062 37.1397 149.67 28.4203 157.783C20.3337 165.307 11.125 157.921 11.125 146.875V20Z" fill="#F87171"/>
<path d="M137.283 139H163.203C182.883 139 195.843 130.36 195.843 113.44C195.843 101.44 188.403 94.36 177.123 92.44V91.84C185.883 89.2 190.563 81.76 190.563 72.76C190.563 58 179.043 51.52 161.403 51.52H137.283V139ZM144.483 89.68V57.4H159.842C175.323 57.4 183.363 61.72 183.363 73.6C183.363 83.56 176.403 89.68 159.123 89.68H144.483ZM144.483 133V95.44H161.523C178.923 95.44 188.763 101.2 188.763 113.44C188.763 127 178.443 133 161.523 133H144.483Z" fill="#34D399"/>
<path d="M237.195 140.56C252.675 140.56 266.115 128.32 266.115 107.08C266.115 85.72 252.675 73.36 237.195 73.36C221.715 73.36 208.275 85.72 208.275 107.08C208.275 128.32 221.715 140.56 237.195 140.56ZM237.195 134.56C224.715 134.56 215.595 123.4 215.595 107.08C215.595 90.76 224.715 79.48 237.195 79.48C249.675 79.48 258.915 90.76 258.915 107.08C258.915 123.4 249.675 134.56 237.195 134.56ZM308.445 140.56C323.925 140.56 337.365 128.32 337.365 107.08C337.365 85.72 323.925 73.36 308.445 73.36C292.965 73.36 279.525 85.72 279.525 107.08C279.525 128.32 292.965 140.56 308.445 140.56ZM308.445 134.56C295.965 134.56 286.845 123.4 286.845 107.08C286.845 90.76 295.965 79.48 308.445 79.48C320.925 79.48 330.165 90.76 330.165 107.08C330.165 123.4 320.925 134.56 308.445 134.56ZM356.055 139H363.015V121.72L376.815 105.4L397.455 139H405.135L380.895 100.36L401.775 75.04H393.855L363.255 112.72H363.015V43.6H356.055V139ZM522.898 140.56C538.378 140.56 551.818 128.32 551.818 107.08C551.818 85.72 538.378 73.36 522.898 73.36C507.418 73.36 493.978 85.72 493.978 107.08C493.978 128.32 507.418 140.56 522.898 140.56ZM522.898 134.56C510.418 134.56 501.298 123.4 501.298 107.08C501.298 90.76 510.418 79.48 522.898 79.48C535.378 79.48 544.618 90.76 544.618 107.08C544.618 123.4 535.378 134.56 522.898 134.56ZM580.348 139H588.748L599.188 100.72C601.228 94.48 602.668 88.48 604.108 82.12H604.708C606.508 88.48 607.708 94.36 609.508 100.48L620.308 139H629.308L647.308 75.04H640.468L629.548 115.36C627.988 121.48 626.548 127 625.108 132.76H624.628C622.948 127 621.508 121.48 619.948 115.36L608.548 75.04H600.868L589.468 115.36C587.908 121.36 586.468 127 584.908 132.76H584.308C583.108 127 581.668 121.48 580.228 115.36L569.068 75.04H561.628L580.348 139ZM662.383 139H669.343V91.12C676.783 83.44 682.063 79.6 689.503 79.6C699.343 79.6 703.543 85.72 703.543 99.04V139H710.503V98.08C710.503 81.64 704.383 73.36 691.063 73.36C682.303 73.36 675.703 78.4 669.223 84.76H668.983L668.143 75.04H662.383V139Z" fill="black"/>
<path d="M419.353 139H440.113C466.873 139 480.073 121.72 480.073 94.96C480.073 68.2 466.873 51.52 439.993 51.52H419.353V139ZM426.553 132.88V57.52H439.273C462.313 57.52 472.513 72.28 472.513 94.96C472.513 117.64 462.313 132.88 439.273 132.88H426.553Z" fill="#60A5FA"/>
</svg>
