<svg width="714" height="178" viewBox="0 0 714 178" fill="none" xmlns="http://www.w3.org/2000/svg">
<path d="M16.9524 0H124.961C124.996 0 125.024 0.0281801 125.024 0.062942V0.062942C125.024 3.53913 122.206 6.35714 118.73 6.35714H16.9524V0Z" fill="#F69893"/>
<path d="M16.9524 27.5476H118.73C122.206 27.5476 125.024 30.3656 125.024 33.8418V33.8418C125.024 33.8766 124.996 33.9047 124.961 33.9047H16.9524V27.5476Z" fill="#F69893"/>
<circle cx="16.9524" cy="16.9524" r="16.9524" fill="#F69893"/>
<circle cx="16.9522" cy="16.9524" r="10.5952" fill="#FCA5A5"/>
<path fill-rule="evenodd" clip-rule="evenodd" d="M118.666 6.35718H16.8816V27.5476H118.666V27.5476C118.657 27.5265 116.616 22.791 116.616 16.9524C116.616 11.1139 118.657 6.37834 118.666 6.35725V6.35718Z" fill="#FCA5A5"/>
<path d="M16.9524 144.095H124.961C124.996 144.095 125.024 144.124 125.024 144.158V144.158C125.024 147.634 122.206 150.452 118.73 150.452H16.9524V144.095Z" fill="#F69893"/>
<path d="M16.9524 171.643H118.73C122.206 171.643 125.024 174.461 125.024 177.937V177.937C125.024 177.972 124.996 178 124.961 178H16.9524V171.643Z" fill="#F69893"/>
<circle cx="16.9524" cy="161.048" r="16.9524" fill="#F69893"/>
<circle cx="16.9522" cy="161.048" r="10.5952" fill="#FCA5A5"/>
<path fill-rule="evenodd" clip-rule="evenodd" d="M118.666 150.452H16.8816V171.643H118.666C118.657 171.622 116.616 166.886 116.616 161.048C116.616 155.209 118.657 150.474 118.666 150.453V150.452Z" fill="#FCA5A5"/>
<circle cx="109.767" cy="61.4524" r="27.5476" fill="#70C4FD"/>
<circle cx="109.767" cy="61.4524" r="21.1905" fill="#93C5FD"/>
<path fill-rule="evenodd" clip-rule="evenodd" d="M109.766 40.2619H6.78076V40.2619C6.78084 40.2619 6.78091 40.2619 6.78099 40.2619C6.78099 40.2619 10.8196 49.7492 10.8196 61.4524C10.8196 73.1451 6.78823 82.6258 6.781 82.6428H109.766V40.2619Z" fill="#93C5FD"/>
<path d="M0 33.9677C0 33.933 0.0281801 33.9048 0.062942 33.9048H109.653V40.2619H6.29419C2.818 40.2619 0 37.4439 0 33.9677V33.9677Z" fill="#70C4FD"/>
<path d="M0 88.9371C0 85.4609 2.81801 82.6429 6.2942 82.6429H109.653V89H0.0629402C0.0281783 89 0 88.9718 0 88.9371V88.9371Z" fill="#70C4FD"/>
<circle cx="109.767" cy="116.548" r="27.5476" fill="#19EBAC"/>
<circle cx="109.767" cy="116.548" r="21.1905" fill="#6EE7B7"/>
<path fill-rule="evenodd" clip-rule="evenodd" d="M109.766 95.3572H6.78076V95.3572C6.78084 95.3572 6.78091 95.3572 6.78099 95.3572C6.78099 95.3572 10.8196 104.844 10.8196 116.548C10.8196 128.245 6.78517 137.728 6.78099 137.738H109.766V95.3572Z" fill="#6EE7B7"/>
<path d="M0 89.063C0 89.0282 0.0281801 89.0001 0.062942 89.0001H109.653V95.3572H6.29419C2.818 95.3572 0 92.5392 0 89.063V89.063Z" fill="#19EBAC"/>
<path d="M0 144.032C0 140.556 2.81801 137.738 6.2942 137.738H109.653V144.095H0.0629402C0.0281783 144.095 0 144.067 0 144.032V144.032Z" fill="#19EBAC"/>
<path d="M180.034 139H205.954C225.634 139 238.594 130.36 238.594 113.44C238.594 101.44 231.154 94.36 219.874 92.44V91.84C228.634 89.2 233.314 81.76 233.314 72.76C233.314 58 221.794 51.52 204.154 51.52H180.034V139ZM187.234 89.68V57.4H202.594C218.074 57.4 226.114 61.72 226.114 73.6C226.114 83.56 219.154 89.68 201.874 89.68H187.234ZM187.234 133V95.44H204.274C221.674 95.44 231.514 101.2 231.514 113.44C231.514 127 221.194 133 204.274 133H187.234Z" fill="#F69893"/>
<path d="M279.947 140.56C295.427 140.56 308.867 128.32 308.867 107.08C308.867 85.72 295.427 73.36 279.947 73.36C264.467 73.36 251.027 85.72 251.027 107.08C251.027 128.32 264.467 140.56 279.947 140.56ZM279.947 134.56C267.467 134.56 258.347 123.4 258.347 107.08C258.347 90.76 267.467 79.48 279.947 79.48C292.427 79.48 301.667 90.76 301.667 107.08C301.667 123.4 292.427 134.56 279.947 134.56ZM351.197 140.56C366.677 140.56 380.117 128.32 380.117 107.08C380.117 85.72 366.677 73.36 351.197 73.36C335.717 73.36 322.277 85.72 322.277 107.08C322.277 128.32 335.717 140.56 351.197 140.56ZM351.197 134.56C338.717 134.56 329.597 123.4 329.597 107.08C329.597 90.76 338.717 79.48 351.197 79.48C363.677 79.48 372.917 90.76 372.917 107.08C372.917 123.4 363.677 134.56 351.197 134.56ZM398.807 139H405.767V121.72L419.567 105.4L440.207 139H447.887L423.647 100.36L444.527 75.04H436.607L406.007 112.72H405.767V43.6H398.807V139ZM569.998 140.56C578.158 140.56 585.838 136.12 592.318 130.84H592.558L593.278 139H599.158V98.44C599.158 84.28 593.758 73.36 578.518 73.36C568.078 73.36 559.198 78.4 554.278 81.76L557.398 86.8C561.838 83.44 569.158 79.48 577.558 79.48C589.678 79.48 592.438 89.32 592.198 98.8C563.998 102.04 551.398 108.76 551.398 122.92C551.398 134.8 559.678 140.56 569.998 140.56ZM571.438 134.68C564.358 134.68 558.358 131.32 558.358 122.56C558.358 112.72 566.998 106.84 592.198 103.96V124.72C584.638 131.32 578.518 134.68 571.438 134.68ZM637.939 140.56C640.819 140.56 644.899 139.48 648.619 138.16L646.939 132.76C644.659 133.72 641.539 134.56 639.139 134.56C630.619 134.56 628.459 129.28 628.459 121.24V80.92H646.819V75.04H628.459V56.56H622.579L621.739 75.04L611.539 75.64V80.92H621.499V120.76C621.499 132.64 625.339 140.56 637.939 140.56ZM685.084 140.56C694.324 140.56 700.324 137.56 705.484 134.32L702.844 129.16C698.044 132.52 692.644 134.68 685.804 134.68C672.004 134.68 662.764 123.76 662.404 108.16H707.764C708.004 106.6 708.124 104.92 708.124 103.12C708.124 84.4 698.884 73.36 683.404 73.36C668.884 73.36 655.324 86.32 655.324 107.08C655.324 128.08 668.644 140.56 685.084 140.56ZM662.404 102.64C663.724 88 673.084 79.36 683.524 79.36C694.684 79.36 701.764 87.16 701.764 102.64H662.404Z" fill="black"/>
<path d="M462.105 139H468.705V83.56C468.705 76.36 468.225 66.76 467.865 59.44H468.345L475.185 79L493.665 129.64H499.425L517.785 79L524.625 59.44H525.105C524.745 66.76 524.265 76.36 524.265 83.56V139H531.105V51.52H521.505L503.505 101.8C501.345 108.16 499.305 114.64 497.025 121H496.545L489.705 101.8L471.705 51.52H462.105V139Z" fill="#70C4FD"/>
</svg>
