<svg width="340" height="640" viewBox="0 0 340 640" fill="none" xmlns="http://www.w3.org/2000/svg">
<path d="M0 60C0 48.9543 8.95431 40 20 40H280C291.046 40 300 48.9543 300 60V620C300 631.046 290.821 640.162 280.426 636.426C230.774 618.584 190.818 540 150 540C109.825 540 68.7935 618.383 19.5578 636.358C9.18192 640.145 0 631.046 0 620V60Z" fill="#34D399"/>
<path d="M20 40C20 28.9543 28.9543 20 40 20H300C311.046 20 320 28.9543 320 40V600C320 611.046 310.821 620.162 300.426 616.426C250.774 598.584 210.818 520 170 520C129.825 520 88.7935 598.383 39.5578 616.358C29.1819 620.145 20 611.046 20 600V40Z" fill="#60A5FA"/>
<path d="M40 20C40 8.95432 48.9543 0 60 0H320C331.046 0 340 8.95431 340 20V580C340 591.046 330.821 600.162 320.426 596.426C270.774 578.584 230.818 500 190 500C149.825 500 108.794 578.383 59.5578 596.358C49.1819 600.145 40 591.046 40 580V20Z" fill="#F87171"/>
</svg>
