<?xml version="1.0" standalone="no"?><!DOCTYPE svg PUBLIC "-//W3C//DTD SVG 1.1//EN" "http://www.w3.org/Graphics/SVG/1.1/DTD/svg11.dtd"><svg t="1603640807243" class="icon" viewBox="0 0 1024 1024" version="1.1" xmlns="http://www.w3.org/2000/svg" p-id="1881" xmlns:xlink="http://www.w3.org/1999/xlink" width="200" height="200"><defs><style type="text/css"></style></defs><path d="M567.968 512C567.968 244 350.656 26.656 82.688 26.656H0V240h82.688c150.304 0 271.968 121.824 271.968 272s-121.632 272-271.968 272H0v213.344h82.688c268 0 485.28-217.344 485.28-485.344zM1024 322.656A295.936 295.936 0 0 0 727.968 26.688H386.624a572.16 572.16 0 0 1 199.84 213.344h141.472a82.656 82.656 0 1 1 0 165.344h-82.656a573.504 573.504 0 0 1 0 213.344h82.656a82.752 82.752 0 0 1 0 165.504h-141.472a572.384 572.384 0 0 1-199.84 213.344h341.344c69.216 0 136.192-24.32 189.344-68.512 125.472-104.672 142.848-291.168 38.176-416.8a296.384 296.384 0 0 0 68.48-189.536z" p-id="1882" fill="#F89E41"></path></svg>