<?xml version="1.0" standalone="no"?><!DOCTYPE svg PUBLIC "-//W3C//DTD SVG 1.1//EN" "http://www.w3.org/Graphics/SVG/1.1/DTD/svg11.dtd"><svg t="1596114223246" class="icon" viewBox="0 0 1024 1024" version="1.1" xmlns="http://www.w3.org/2000/svg" p-id="899" xmlns:xlink="http://www.w3.org/1999/xlink" width="200" height="200"><defs><style type="text/css"></style></defs><path d="M823.466667 200.533333c-78.933333-78.933333-189.866667-128-311.466667-128V512L823.466667 200.533333z" fill="#449BD0" p-id="900"></path><path d="M512 550.4c-4.266667 0-10.666667 0-14.933333-2.133333-14.933333-6.4-23.466667-19.2-23.466667-34.133334V72.533333c0-21.333333 17.066667-38.4 38.4-38.4 128 0 247.466667 49.066667 337.066667 140.8 6.4 6.4 10.666667 17.066667 10.666666 25.6 0 10.666667-4.266667 19.2-10.666666 25.6L537.6 537.6c-6.4 8.533333-14.933333 12.8-25.6 12.8z m38.4-439.466667v311.466667L770.133333 202.666667c-64-53.333333-138.666667-85.333333-219.733333-91.733334z" fill="#333333" p-id="901"></path><path d="M512 512h290.133333c0-78.933333-32-151.466667-85.333333-204.8L512 512z" fill="#9AFA98" p-id="902"></path><path d="M802.133333 550.4H512c-14.933333 0-27.733333-8.533333-34.133333-23.466667-6.4-14.933333-2.133333-29.866667 8.533333-40.533333l204.8-204.8c14.933333-14.933333 38.4-14.933333 53.333333 0 61.866667 61.866667 96 142.933333 96 230.4-2.133333 21.333333-19.2 38.4-38.4 38.4z m-200.533333-74.666667h160c-6.4-40.533333-21.333333-78.933333-46.933333-113.066666l-113.066667 113.066666z" fill="#333333" p-id="903"></path><path d="M512 550.4c-21.333333 0-38.4-17.066667-38.4-38.4s17.066667-38.4 36.266667-38.4c21.333333 0 38.4 17.066667 38.4 38.4 2.133333 21.333333-14.933333 38.4-36.266667 38.4z" fill="#333333" p-id="904"></path><path d="M512 245.333333c-72.533333 0-140.8 29.866667-187.733333 78.933334L512 512V245.333333z" fill="#FF7E3A" p-id="905"></path><path d="M512 550.4c-10.666667 0-19.2-4.266667-25.6-10.666667L298.666667 352c-14.933333-14.933333-14.933333-38.4 0-53.333333 57.6-57.6 134.4-89.6 215.466666-89.6 21.333333 0 38.4 17.066667 38.4 38.4V512c0 14.933333-8.533333 27.733333-23.466666 34.133333-6.4 2.133333-12.8 4.266667-17.066667 4.266667z m-132.266667-224l96 96v-136.533333c-36.266667 6.4-68.266667 19.2-96 40.533333z" fill="#333333" p-id="906"></path><path d="M512 550.4c-21.333333 0-38.4-17.066667-38.4-38.4s17.066667-38.4 36.266667-38.4c21.333333 0 38.4 17.066667 38.4 38.4 2.133333 21.333333-14.933333 38.4-36.266667 38.4z" fill="#333333" p-id="907"></path><path d="M512 512l130.133333 130.133333c34.133333-34.133333 53.333333-78.933333 53.333334-130.133333H512z" fill="#F0657C" p-id="908"></path><path d="M642.133333 680.533333c-8.533333 0-19.2-4.266667-25.6-10.666666l-130.133333-130.133334c-10.666667-10.666667-14.933333-27.733333-8.533333-40.533333 6.4-14.933333 19.2-23.466667 34.133333-23.466667h183.466667c21.333333 0 38.4 17.066667 38.4 38.4 0 59.733333-23.466667 115.2-64 155.733334-8.533333 6.4-17.066667 10.666667-27.733334 10.666666z m-40.533333-130.133333l36.266667 36.266667c6.4-10.666667 12.8-23.466667 14.933333-36.266667h-51.2z" fill="#333333" p-id="909"></path><path d="M512 512v388.266667c106.666667 0 204.8-42.666667 275.2-113.066667L512 512z" fill="#FF7E3A" p-id="910"></path><path d="M512 938.666667c-21.333333 0-38.4-17.066667-38.4-38.4V512c0-14.933333 8.533333-27.733333 23.466667-34.133333 14.933333-6.4 29.866667-2.133333 40.533333 8.533333l275.2 275.2c14.933333 14.933333 14.933333 38.4 0 53.333333C733.866667 893.866667 625.066667 938.666667 512 938.666667z m38.4-337.066667v260.266667c68.266667-6.4 130.133333-34.133333 183.466667-76.8l-183.466667-183.466667z" fill="#333333" p-id="911"></path><path d="M194.133333 512c0 87.466667 36.266667 166.4 93.866667 224L512 512H194.133333z" fill="#9AFA98" p-id="912"></path><path d="M288 774.4c-8.533333 0-19.2-4.266667-25.6-10.666667-68.266667-68.266667-104.533333-157.866667-104.533333-251.733333 0-21.333333 17.066667-38.4 38.4-38.4H512c14.933333 0 27.733333 8.533333 34.133333 23.466667 6.4 14.933333 2.133333 29.866667-8.533333 40.533333L313.6 763.733333c-6.4 6.4-17.066667 10.666667-25.6 10.666667zM234.666667 550.4c6.4 49.066667 25.6 93.866667 55.466666 132.266667l132.266667-132.266667H234.666667z" fill="#333333" p-id="913"></path><path d="M512 512l-164.266667 164.266667c42.666667 42.666667 100.266667 68.266667 164.266667 68.266666V512z" fill="#449BD0" p-id="914"></path><path d="M512 780.8c-72.533333 0-138.666667-27.733333-189.866667-78.933333-6.4-6.4-10.666667-17.066667-10.666666-25.6s4.266667-19.2 10.666666-25.6l164.266667-164.266667c10.666667-10.666667 27.733333-12.8 40.533333-8.533333 14.933333 6.4 23.466667 19.2 23.466667 34.133333v232.533333c0 19.2-17.066667 36.266667-38.4 36.266667z m-108.8-106.666667c21.333333 14.933333 44.8 25.6 70.4 29.866667v-100.266667l-70.4 70.4z" fill="#333333" p-id="915"></path><path d="M512 512L234.666667 234.666667c-70.4 70.4-115.2 168.533333-115.2 277.333333H512z" fill="#F0657C" p-id="916"></path><path d="M512 550.4H121.6c-21.333333 0-38.4-17.066667-38.4-38.4 0-115.2 44.8-221.866667 125.866667-302.933333 14.933333-14.933333 38.4-14.933333 53.333333 0l277.333333 277.333333c10.666667 10.666667 14.933333 27.733333 8.533334 40.533333-8.533333 12.8-21.333333 23.466667-36.266667 23.466667zM160 475.733333h262.4l-185.6-185.6c-42.666667 53.333333-70.4 117.333333-76.8 185.6z" fill="#333333" p-id="917"></path><path d="M512 512m-76.8 0a76.8 76.8 0 1 0 153.6 0 76.8 76.8 0 1 0-153.6 0Z" fill="#FFFFFF" p-id="918"></path><path d="M512 625.066667c-64 0-115.2-51.2-115.2-113.066667s51.2-115.2 115.2-115.2 113.066667 51.2 113.066667 115.2-49.066667 113.066667-113.066667 113.066667z m0-153.6c-21.333333 0-40.533333 17.066667-40.533333 40.533333 0 21.333333 17.066667 38.4 40.533333 38.4 21.333333 0 38.4-17.066667 38.4-38.4s-17.066667-40.533333-38.4-40.533333z" fill="#333333" p-id="919"></path></svg>