<?xml version="1.0" encoding="UTF-8"?>
<svg xmlns="http://www.w3.org/2000/svg" xmlns:xlink="http://www.w3.org/1999/xlink" width="64pt" height="64pt" viewBox="0 0 64 64" version="1.1">
<g id="surface5524072">
<path style=" stroke:none;fill-rule:nonzero;fill:rgb(91.764706%,29.803922%,53.72549%);fill-opacity:1;" d="M 30 4 C 15.671875 4 4 15.671875 4 30 C 4 44.328125 15.671875 56 30 56 C 44.328125 56 56 44.328125 56 30 C 56 15.671875 44.328125 4 30 4 Z M 30 8 C 35.21875 8 40 9.8125 43.765625 12.84375 C 41.859375 15.1875 38.34375 18.453125 32.453125 20.59375 C 29.25 14.8125 26.578125 11.109375 24.71875 8.65625 C 26.40625 8.25 28.171875 8 30 8 Z M 20.75 10.0625 C 22.3125 12.078125 25.140625 15.859375 28.5 21.78125 C 19.859375 24.046875 12.0625 24.1875 8.8125 24.09375 C 10.546875 17.84375 14.953125 12.734375 20.75 10.0625 Z M 46.640625 15.625 C 49.96875 19.484375 52 24.5 52 30 C 52 30.828125 51.953125 31.625 51.859375 32.421875 C 51.140625 32.328125 50.59375 32.234375 49.671875 32.15625 C 46.578125 31.921875 42.46875 31.921875 38.03125 32.578125 C 36.875 29.5625 35.59375 26.78125 34.28125 24.171875 C 40.46875 21.8125 44.375 18.328125 46.640625 15.625 Z M 30.40625 25.40625 C 31.671875 27.875 32.890625 30.53125 34.03125 33.375 C 28.765625 34.9375 23.984375 38.5 20.3125 41.8125 C 18.34375 43.5625 16.734375 45.234375 15.53125 46.546875 C 10.921875 42.515625 8 36.609375 8 30 C 8 29.34375 8.046875 28.71875 8.09375 28.078125 C 10.9375 28.203125 20.046875 28.28125 30.40625 25.40625 Z M 43.640625 36.03125 C 46.71875 35.921875 49.140625 36.125 51.0625 36.34375 C 49.609375 41.234375 46.5 45.390625 42.390625 48.1875 C 41.734375 44.078125 40.703125 40.125 39.46875 36.40625 C 40.90625 36.21875 42.3125 36.09375 43.640625 36.03125 Z M 35.46875 37.140625 C 36.890625 41.25 38.015625 45.640625 38.65625 50.234375 C 36 51.359375 33.078125 52 30 52 C 25.890625 52 22.078125 50.859375 18.78125 48.921875 C 19.890625 47.734375 21.265625 46.296875 22.96875 44.78125 C 26.5 41.609375 31.109375 38.375 35.46875 37.140625 Z M 35.46875 37.140625 "/>
</g>
</svg>
