<?xml version="1.0" standalone="no"?><!DOCTYPE svg PUBLIC "-//W3C//DTD SVG 1.1//EN" "http://www.w3.org/Graphics/SVG/1.1/DTD/svg11.dtd"><svg t="1603641061428" class="icon" viewBox="0 0 1024 1024" version="1.1" xmlns="http://www.w3.org/2000/svg" p-id="789" xmlns:xlink="http://www.w3.org/1999/xlink" width="200" height="200"><defs><style type="text/css"></style></defs><path d="M512.032 204.8c-136.544 0-221.856 68.256-256 204.8 51.2-68.256 110.944-93.856 179.2-76.8 38.944 9.728 66.784 37.984 97.632 69.28C583.072 453.024 641.152 512 768.032 512c136.544 0 221.856-68.256 256-204.8-51.2 68.256-110.944 93.856-179.2 76.8-38.944-9.728-66.784-37.984-97.632-69.28C697.024 263.776 638.944 204.8 512.032 204.8z m-256 307.2c-136.544 0-221.856 68.256-256 204.8 51.2-68.256 110.944-93.856 179.2-76.8 38.944 9.728 66.784 37.984 97.632 69.28 50.208 50.944 108.288 109.92 235.168 109.92 136.544 0 221.856-68.256 256-204.8-51.2 68.256-110.944 93.856-179.2 76.8-38.944-9.728-66.784-37.984-97.632-69.28C441.024 570.976 382.944 512 256.032 512z" fill="#38B2AC" p-id="790"></path></svg>