<?xml version="1.0" encoding="UTF-8"?>
<svg xmlns="http://www.w3.org/2000/svg" xmlns:xlink="http://www.w3.org/1999/xlink" width="64pt" height="64pt" viewBox="0 0 64 64" version="1.1">
<g id="surface26140614">
<path style=" stroke:none;fill-rule:nonzero;fill:rgb(90.196078%,9.019608%,17.647059%);fill-opacity:1;" d="M 46.5 4 C 44.734375 4 43.015625 4.265625 41.40625 4.78125 C 40.34375 5.09375 39.765625 6.21875 40.09375 7.28125 C 40.421875 8.328125 41.53125 8.921875 42.59375 8.59375 C 43.828125 8.203125 45.140625 8 46.5 8 C 53.9375 8 60 14.21875 60 22 C 60 23.21875 59.84375 24.40625 59.5625 25.515625 C 59.296875 26.59375 59.953125 27.671875 61.03125 27.9375 C 62.09375 28.203125 63.1875 27.5625 63.453125 26.484375 C 63.8125 25.046875 64 23.546875 64 22 C 64 12.109375 56.171875 4 46.5 4 Z M 27.125 12 C 22.609375 11.921875 15.78125 15.453125 9.71875 21.421875 C 3.671875 27.390625 0.15625 33.71875 0.15625 39.1875 C 0.140625 50.984375 13.765625 56 27.078125 56 C 44.53125 56 56.140625 46.015625 56.140625 38.078125 C 56.140625 33.28125 52.046875 30.5625 48.375 29.4375 C 47.46875 29.171875 46.84375 28.984375 47.3125 27.8125 C 48.34375 25.28125 48.453125 23.09375 47.328125 21.53125 C 45.25 18.59375 39.546875 18.75 33.015625 21.4375 C 33.015625 21.4375 30.953125 22.328125 31.484375 20.71875 C 32.484375 17.546875 32.34375 14.875 30.78125 13.328125 C 29.890625 12.453125 28.640625 12.03125 27.125 12 Z M 48 12 C 47.0625 12 46.15625 12.15625 45.3125 12.46875 C 44.625 12.6875 44.109375 13.265625 43.96875 13.984375 C 43.828125 14.703125 44.09375 15.4375 44.65625 15.90625 C 45.21875 16.375 45.984375 16.5 46.671875 16.21875 C 47.078125 16.078125 47.515625 16 48 16 C 50.234375 16 52 17.765625 52 20 C 52 20.46875 51.921875 20.921875 51.765625 21.34375 C 51.53125 22.015625 51.671875 22.765625 52.140625 23.3125 C 52.609375 23.859375 53.328125 24.109375 54.03125 23.96875 C 54.734375 23.84375 55.3125 23.34375 55.546875 22.65625 C 55.84375 21.828125 56 20.921875 56 20 C 56 15.609375 52.390625 12 48 12 Z M 25.96875 27.84375 C 35.171875 27.984375 43.515625 31.703125 44.125 37.71875 C 44.8125 44.59375 38.265625 52 22.5 52 L 22 52 C 15.90625 52 8.71875 49.046875 8.03125 42.171875 C 7.328125 35.296875 11.375 29.03125 22 28 C 23.328125 27.875 24.65625 27.8125 25.96875 27.84375 Z M 23.71875 32.03125 C 19.28125 31.71875 14.75 33.90625 12.875 37.40625 C 10.671875 41.5 12.796875 46.046875 17.8125 47.53125 C 23.015625 49.0625 29.140625 46.71875 31.28125 42.296875 C 33.375 37.984375 30.75 33.53125 25.609375 32.3125 C 24.984375 32.15625 24.359375 32.078125 23.71875 32.03125 Z M 24.625 37.40625 C 25.265625 37.625 25.484375 38.28125 25.140625 38.84375 C 24.78125 39.421875 23.96875 39.703125 23.34375 39.46875 C 22.71875 39.234375 22.515625 38.59375 22.875 38.03125 C 23.234375 37.46875 24 37.1875 24.625 37.40625 Z M 19.375 38.6875 C 19.8125 38.703125 20.25 38.78125 20.65625 38.9375 C 22.28125 39.5625 22.8125 41.28125 21.8125 42.765625 C 20.796875 44.234375 18.640625 44.890625 17.015625 44.203125 C 15.40625 43.546875 14.9375 41.8125 15.9375 40.375 C 16.6875 39.3125 18.0625 38.6875 19.375 38.6875 Z M 19.375 38.6875 "/>
</g>
</svg>
